<svg width="72" height="81" viewBox="0 0 72 81" fill="none" xmlns="http://www.w3.org/2000/svg">
<g id="Group 1000005367">
<g id="Group 1">
<circle id="Ellipse 1" cx="36" cy="36" r="35.5" stroke="white" stroke-opacity="0.2"/>
</g>
<g id="Group 1000005366">
<circle id="Ellipse 2" cx="35.5" cy="48.5" r="32.5" fill="#5E4796"/>
<g id="kNTr4L.tif">
<g id="Group">
<path id="Vector" d="M38.8143 32C41.3825 32 43.9508 32 46.519 32C46.8904 32.1904 47.0079 32.4931 46.9996 32.905C46.9788 33.9441 46.9809 34.9843 46.9986 36.0235C47.0048 36.4271 46.9237 36.786 46.7385 37.1448C46.4004 37.7981 46.0894 38.4659 45.7846 39.1358C45.7045 39.3116 45.6546 39.5175 45.6546 39.7089C45.6473 43.7772 45.6473 47.8454 45.6546 51.9136C45.6546 52.1414 45.7014 52.3786 45.7732 52.596C46.1362 53.6851 46.519 54.7669 46.8831 55.856C46.9486 56.0526 46.9881 56.2689 46.9881 56.4759C46.9944 59.4821 46.9933 62.4893 46.9923 65.4955C46.9923 66.1227 46.7728 66.3401 46.1487 66.3401C39.3832 66.3401 32.6167 66.3401 25.8513 66.3401C25.2272 66.3401 25.0087 66.1227 25.0087 65.4945C25.0077 62.4883 25.0066 59.4811 25.0129 56.4749C25.0129 56.2679 25.0524 56.0526 25.119 55.856C25.4914 54.7471 25.8814 53.6445 26.2549 52.5356C26.3142 52.3598 26.3485 52.1674 26.3485 51.9823C26.3537 47.8911 26.3547 43.8011 26.3464 39.71C26.3464 39.5175 26.2965 39.3116 26.2164 39.1368C25.8814 38.4076 25.5153 37.693 25.1855 36.9607C25.0836 36.735 25.0202 36.4729 25.016 36.2263C24.9983 35.1185 25.0222 34.0117 25.0004 32.905C24.9921 32.492 25.1169 32.1935 25.482 32C28.0503 32 30.6185 32 33.1868 32C33.2606 32.0624 33.3397 32.1186 33.4073 32.1872C33.6028 32.3838 33.6871 32.6137 33.5904 32.8873C33.4967 33.1525 33.3158 33.3169 33.0297 33.3429C32.908 33.3543 32.7842 33.3533 32.6615 33.3533C30.6976 33.3533 28.7337 33.3533 26.7698 33.3533C26.6397 33.3533 26.5097 33.3533 26.3672 33.3533V35.7406H45.6224V33.3543C44.5364 33.3543 43.4775 33.3543 42.4185 33.3543C41.3024 33.3543 40.1863 33.3543 39.0712 33.3523C38.7446 33.3523 38.5188 33.1983 38.4117 32.8873C38.3066 32.5836 38.4148 32.3433 38.6437 32.1425C38.6998 32.0936 38.7581 32.0478 38.8153 32.001L38.8143 32ZM45.6338 57.0054H26.3693V64.9775H45.6348V57.0054H45.6338ZM27.7091 51.6972H44.2815V39.9295H27.7091V51.6972ZM44.4989 53.089C44.4397 53.0797 44.4064 53.0703 44.3731 53.0703C38.8257 53.0693 33.2793 53.0703 27.732 53.0641C27.552 53.0641 27.4792 53.1338 27.4272 53.2898C27.1931 53.9867 26.9508 54.6805 26.7136 55.3764C26.6907 55.4451 26.6855 55.5189 26.672 55.5949H45.3613C45.0659 54.7357 44.7798 53.9066 44.4979 53.088L44.4989 53.089ZM26.7604 37.1126C26.9518 37.5131 27.138 37.8553 27.2805 38.2152C27.3866 38.4836 27.5354 38.5678 27.8266 38.5668C33.2752 38.5564 38.7248 38.5595 44.1734 38.5595C44.2514 38.5595 44.3315 38.5689 44.4074 38.5553C44.4667 38.5449 44.553 38.5231 44.5749 38.4794C44.7996 38.0373 45.0128 37.59 45.2448 37.1126H26.7604Z" fill="white"/>
<path id="Vector_2" d="M36.2016 32C36.3556 32.1789 36.5751 32.3339 36.65 32.5409C36.7665 32.8634 36.5439 33.1973 36.2235 33.3086C35.9229 33.4136 35.5754 33.2794 35.4184 32.9976C35.253 32.7021 35.3299 32.3464 35.6087 32.1311C35.6691 32.0832 35.7356 32.0437 35.8001 32C35.9343 32 36.0685 32 36.2016 32Z" fill="white"/>
<path id="Vector_3" d="M38.8028 59.0494C38.706 59.2169 38.6384 59.4135 38.5063 59.5466C37.2352 60.8334 35.9568 62.1118 34.6742 63.386C34.358 63.7002 33.9669 63.7095 33.6902 63.4401C33.3948 63.152 33.3969 62.7515 33.7172 62.4301C34.9998 61.1392 36.2876 59.8545 37.5733 58.5668C37.8031 58.3358 38.0736 58.2766 38.368 58.4066C38.6259 58.52 38.7549 58.7322 38.8028 59.0484V59.0494Z" fill="white" fill-opacity="0.5"/>
<path id="Vector_4" d="M43.478 58.264C43.6757 58.4045 43.9316 58.497 44.0148 58.6718C44.1063 58.8622 44.047 59.1295 44.0314 59.3615C44.0273 59.4249 43.9451 59.4884 43.891 59.5424C42.6147 60.8219 41.3383 62.1024 40.0579 63.3787C39.7843 63.6512 39.4868 63.7064 39.2111 63.5441C38.9292 63.3787 38.8127 63.1207 38.8835 62.8056C38.9136 62.6724 38.9937 62.5341 39.0905 62.4363C40.371 61.1444 41.6556 59.8566 42.9475 58.5771C43.0734 58.4523 43.2596 58.3899 43.478 58.263V58.264Z" fill="white" fill-opacity="0.5"/>
<path id="Vector_5" d="M33.4777 58.9662C33.3373 59.2065 33.2687 59.4031 33.1365 59.5373C31.8654 60.824 30.587 62.1024 29.3044 63.3777C28.9747 63.7053 28.5753 63.7137 28.2986 63.4224C28.0156 63.126 28.0333 62.7421 28.3589 62.4145C29.6269 61.1402 30.9001 59.8712 32.1671 58.5969C32.4053 58.3577 32.6903 58.2443 32.9784 58.4118C33.175 58.5262 33.3009 58.7623 33.4777 58.9662Z" fill="white" fill-opacity="0.5"/>
<path id="Vector_6" d="M36.0009 41.8569C38.0325 41.8569 40.064 41.8569 42.0965 41.8569C42.7113 41.8569 42.9505 42.091 42.9516 42.7037C42.9536 44.9276 42.9536 47.1516 42.9516 49.3755C42.9516 49.9778 42.6936 50.2357 42.0965 50.2357C38.0335 50.2368 33.9694 50.2368 29.9064 50.2357C29.3114 50.2357 29.0524 49.9767 29.0514 49.3755C29.0493 47.1516 29.0493 44.9276 29.0514 42.7037C29.0514 42.0899 29.2906 41.8569 29.9064 41.8569C31.9379 41.8569 33.9694 41.8569 36.002 41.8569H36.0009Z" fill="white" fill-opacity="0.5"/>
<path id="Vector_7" d="M30.4104 55.0124C30.036 55.0176 29.7218 54.7149 29.7197 54.3498C29.7177 53.9899 30.0412 53.6685 30.4031 53.6705C30.761 53.6726 31.0574 53.9639 31.0678 54.3259C31.0793 54.7045 30.788 55.0082 30.4094 55.0134L30.4104 55.0124Z" fill="white"/>
<path id="Vector_8" d="M33.0955 55.0123C32.719 55.0155 32.41 54.7138 32.4121 54.3445C32.4142 53.9773 32.7315 53.6653 33.0976 53.6705C33.4502 53.6757 33.755 53.9773 33.7654 54.33C33.7769 54.6951 33.469 55.0092 33.0955 55.0123Z" fill="white"/>
<path id="Vector_9" d="M35.7865 55.0123C35.4027 55.0165 35.1093 54.7284 35.1104 54.3466C35.1104 53.9701 35.4151 53.6663 35.7865 53.6715C36.136 53.6767 36.4439 53.9794 36.4564 54.33C36.4689 54.694 36.161 55.0082 35.7875 55.0123H35.7865Z" fill="white"/>
</g>
</g>
</g>
</g>
</svg>
