<svg width="30" height="30" viewBox="0 0 30 30" fill="none" xmlns="http://www.w3.org/2000/svg">
<path d="M15.1875 20.625V23.25" stroke="white" stroke-width="1.5" stroke-linecap="round" stroke-linejoin="round"/>
<path d="M8.9375 27.5H21.4375V26.25C21.4375 24.875 20.3125 23.75 18.9375 23.75H11.4375C10.0625 23.75 8.9375 24.875 8.9375 26.25V27.5V27.5Z" stroke="white" stroke-width="1.5" stroke-miterlimit="10"/>
<path d="M7.6875 27.5H22.6875" stroke="white" stroke-width="1.5" stroke-linecap="round" stroke-linejoin="round"/>
<path d="M15 20C10.1625 20 6.25 16.0875 6.25 11.25V7.5C6.25 4.7375 8.4875 2.5 11.25 2.5H18.75C21.5125 2.5 23.75 4.7375 23.75 7.5V11.25C23.75 16.0875 19.8375 20 15 20Z" stroke="white" stroke-width="1.5" stroke-linecap="round" stroke-linejoin="round"/>
<path d="M6.8373 14.5625C5.8998 14.2625 5.0748 13.7125 4.4248 13.0625C3.2998 11.8125 2.5498 10.3125 2.5498 8.5625C2.5498 6.8125 3.9248 5.4375 5.6748 5.4375H6.4873C6.2373 6.0125 6.1123 6.65 6.1123 7.3125V11.0625C6.1123 12.3125 6.3748 13.4875 6.8373 14.5625Z" stroke="white" stroke-width="1.5" stroke-linecap="round" stroke-linejoin="round"/>
<path d="M23.1621 14.5625C24.0996 14.2625 24.9246 13.7125 25.5746 13.0625C26.6996 11.8125 27.4496 10.3125 27.4496 8.5625C27.4496 6.8125 26.0746 5.4375 24.3246 5.4375H23.5121C23.7621 6.0125 23.8871 6.65 23.8871 7.3125V11.0625C23.8871 12.3125 23.6246 13.4875 23.1621 14.5625Z" stroke="white" stroke-width="1.5" stroke-linecap="round" stroke-linejoin="round"/>
</svg>
