<svg width="72" height="81" viewBox="0 0 72 81" fill="none" xmlns="http://www.w3.org/2000/svg">
<g id="Group 1000005367">
<g id="Group 1">
<circle id="Ellipse 1" cx="36" cy="36" r="35.5" stroke="white" stroke-opacity="0.2"/>
</g>
<g id="Group 1000005366">
<circle id="Ellipse 2" cx="35.5" cy="48.5" r="32.5" fill="#5E4796"/>
<g id="Group">
<path id="Vector" d="M30.719 46.9188C30.719 48.1082 30.7252 49.2977 30.7172 50.4881C30.7091 51.715 30.135 52.5929 29.0303 53.1153C28.0695 53.5698 27.1693 54.1163 26.3906 54.8441C24.627 56.4926 23.6554 58.4938 23.7608 60.9433C23.834 62.6319 24.4671 64.117 25.5432 65.4073C27.0488 67.2121 28.9982 68.2792 31.2789 68.7552C33.6784 69.2561 36.0126 69.0258 38.2514 68.0158C40.1383 67.1639 41.6716 65.8878 42.6288 64.0277C43.9648 61.4308 43.8005 58.876 42.2252 56.4301C41.2492 54.9137 39.8588 53.8672 38.2326 53.1197C37.6191 52.8375 37.1664 52.4 36.828 51.8133C36.5913 51.4043 36.5395 50.9712 36.5386 50.5247C36.5315 48.0564 36.5368 45.5891 36.5324 43.1209C36.5324 42.9833 36.5592 42.9387 36.7065 42.9405C37.5477 42.9485 38.3898 42.9467 39.231 42.9423C39.5105 42.9414 39.7132 43.0575 39.8302 43.3084C39.9445 43.5549 39.8865 43.796 39.6712 44.0121C39.5418 44.1415 39.3703 44.1594 39.2006 44.163C38.9417 44.1692 38.6818 44.1692 38.4228 44.163C38.3148 44.1603 38.2853 44.196 38.2853 44.3023C38.288 46.4223 38.2809 48.5422 38.2934 50.6622C38.296 51.0846 38.5675 51.3605 38.9435 51.5302C39.5051 51.7838 40.0409 52.0838 40.5625 52.4125C41.1224 52.7643 41.6483 53.1662 42.1252 53.6189C42.8583 54.3163 43.4915 55.1004 44.0023 55.9809C44.5443 56.9167 44.9212 57.9142 45.1096 58.9751C45.323 60.1744 45.3016 61.371 45.023 62.5658C44.7211 63.8607 44.1675 65.0278 43.3861 66.0985C43.0084 66.6165 42.5896 67.0987 42.1234 67.5318C41.2206 68.3712 40.2008 69.0454 39.0828 69.5714C38.5568 69.8196 38.0085 70.008 37.462 70.1983C37.186 70.2947 36.8887 70.3501 36.5993 70.4153C36.043 70.5394 35.4795 70.5965 34.9196 70.6903C34.3285 70.7894 33.7382 70.7332 33.1479 70.7385C32.8863 70.7412 32.6255 70.7626 32.3594 70.7153C31.7406 70.6046 31.1199 70.509 30.5038 70.3795C29.4831 70.1661 28.5249 69.7919 27.6078 69.3079C25.9191 68.4149 24.5287 67.1853 23.4768 65.585C22.8445 64.6224 22.3989 63.5713 22.1739 62.4471C21.9524 61.3406 21.9524 60.2181 22.1176 59.0939C22.2828 57.966 22.6775 56.9248 23.2446 55.9496C23.8 54.9941 24.5037 54.1574 25.336 53.4224C26.1799 52.6768 27.1157 52.0785 28.1266 51.5972C28.4472 51.4445 28.7419 51.2873 28.8776 50.939C28.9357 50.7908 28.9812 50.6399 28.9812 50.4747C28.9785 48.4369 28.9776 46.399 28.983 44.3621C28.983 44.2076 28.9473 44.1576 28.7865 44.1603C28.4838 44.1666 28.1784 44.1898 27.8766 44.146C27.5185 44.0942 27.3515 43.871 27.3604 43.4807C27.3658 43.2378 27.5533 42.986 27.9078 42.9494C27.9578 42.944 28.0087 42.944 28.0596 42.944C28.8821 42.944 29.7045 42.9485 30.5279 42.9396C30.6904 42.9378 30.7234 42.986 30.7225 43.1405C30.7163 44.3996 30.719 45.6587 30.719 46.9179V46.9188Z" fill="white"/>
<path id="Vector_2" d="M30.1562 56.6988C31.4689 56.6988 32.6441 56.8801 33.7666 57.3784C34.7614 57.8205 35.799 57.7829 36.8385 57.549C37.8601 57.3186 38.8031 56.8926 39.6996 56.3622C39.8211 56.2899 39.8889 56.3006 39.9836 56.4015C41.2213 57.7026 41.8848 59.2242 41.7446 61.0415C41.6472 62.306 41.1427 63.4097 40.3247 64.3706C39.1915 65.7038 37.7404 66.5272 36.0616 66.9522C33.805 67.5246 31.6028 67.338 29.4972 66.3316C28.0076 65.6208 26.803 64.5751 26.0788 63.0659C25.1563 61.1442 25.317 59.2707 26.4235 57.4597C26.5681 57.223 26.7494 57.1177 27.0173 57.0632C28.0862 56.8462 29.1632 56.7176 30.1553 56.6997L30.1562 56.6988ZM38.854 59.2653C39.1942 59.2653 39.4907 58.976 39.4942 58.6402C39.4978 58.3107 39.196 58.008 38.8611 58.0062C38.5236 58.0044 38.2342 58.2991 38.2369 58.6429C38.2396 58.9787 38.5236 59.2662 38.8531 59.2662L38.854 59.2653ZM30.3375 60.2494C30.3428 60.5753 30.6339 60.8647 30.9608 60.8673C31.2992 60.8709 31.6037 60.5584 31.593 60.219C31.5832 59.8922 31.2912 59.6038 30.9679 59.6011C30.6277 59.5984 30.3321 59.902 30.3375 60.2494ZM34.3997 62.1658C34.3943 61.83 34.1095 61.5425 33.7809 61.5416C33.4397 61.5407 33.1316 61.8532 33.1424 62.189C33.1531 62.5176 33.446 62.8025 33.7746 62.8016C34.1122 62.8016 34.4051 62.5033 34.3997 62.1658ZM28.0148 59.5502C28.3586 59.5475 28.6435 59.2591 28.639 58.9179C28.6345 58.5813 28.3354 58.2937 27.996 58.3C27.6594 58.3062 27.3906 58.584 27.3897 58.926C27.3897 59.276 27.6656 59.5529 28.0148 59.5502ZM34.4952 65.5199C34.4952 65.1787 34.2068 64.8849 33.8693 64.8849C33.5362 64.8849 33.2397 65.1859 33.2442 65.5216C33.2486 65.8556 33.5299 66.1387 33.8621 66.1441C34.2015 66.1494 34.4944 65.861 34.4944 65.5199H34.4952ZM39.3915 63.2579C39.4014 62.9159 39.1228 62.6239 38.7789 62.6149C38.4468 62.6069 38.153 62.8819 38.1405 63.2132C38.1271 63.5535 38.4066 63.8553 38.7441 63.866C39.0844 63.8776 39.3817 63.5981 39.3915 63.2579ZM29.1435 62.9668C28.7962 62.9686 28.5256 63.2481 28.5283 63.6008C28.5318 63.9384 28.8104 64.217 29.1453 64.217C29.4838 64.217 29.7767 63.9267 29.7785 63.5883C29.7802 63.2499 29.4882 62.9641 29.1435 62.9659V62.9668ZM34.0863 59.9449C34.3104 59.9493 34.5247 59.7359 34.5256 59.5091C34.5256 59.2885 34.3292 59.0858 34.105 59.076C33.8737 59.0662 33.6639 59.2644 33.6603 59.4993C33.6558 59.7315 33.8559 59.9404 34.0872 59.9449H34.0863ZM37.4877 60.9915C37.4823 60.8406 37.335 60.703 37.185 60.7102C37.0385 60.7182 36.9054 60.8531 36.9054 60.9959C36.9054 61.1531 37.0403 61.2862 37.1983 61.2844C37.3564 61.2826 37.4921 61.1451 37.4868 60.9915H37.4877ZM36.2553 64.233C36.1062 64.2277 35.9624 64.3643 35.958 64.5152C35.9535 64.6635 36.0892 64.8072 36.2402 64.8135C36.3902 64.8197 36.5313 64.6849 36.5366 64.5322C36.5411 64.3831 36.4063 64.2393 36.2553 64.2339V64.233ZM28.3961 61.7139C28.3988 61.5639 28.2586 61.421 28.1094 61.421C27.9594 61.421 27.8192 61.5612 27.8192 61.7112C27.8192 61.863 27.9541 62.0015 28.1068 62.0041C28.2532 62.0068 28.3943 61.8657 28.397 61.7139H28.3961ZM31.5939 64.9591C31.5957 64.8144 31.468 64.6813 31.3207 64.6742C31.1662 64.667 31.0206 64.7992 31.0161 64.9483C31.0117 65.101 31.1465 65.2412 31.3001 65.2439C31.4546 65.2466 31.5921 65.1126 31.5939 64.9591ZM40.5748 61.0852C40.5748 60.9227 40.4497 60.7977 40.289 60.8004C40.1399 60.8031 40.0104 60.929 40.0077 61.0745C40.0041 61.2326 40.1327 61.3674 40.2881 61.3692C40.4497 61.371 40.5748 61.2469 40.5748 61.0843V61.0852Z" fill="white" fill-opacity="0.5"/>
<path id="Vector_3" d="M39.1969 37.311C39.4988 36.9306 39.7926 36.5591 40.0872 36.1885C41.099 34.9151 42.1108 33.6426 43.1208 32.3683C43.1824 32.2906 43.252 32.2424 43.3476 32.2111C45.3997 31.5503 47.4509 30.8868 49.503 30.2233C50.9764 29.7465 52.4499 29.2669 53.9251 28.7954C54.8985 28.4846 55.9013 28.9901 56.2156 29.9376C56.53 30.8859 56.0254 31.8843 55.0574 32.2192C54.7047 32.3406 54.3475 32.4478 53.9956 32.571C53.8831 32.6103 53.8412 32.5889 53.8072 32.4763C53.7019 32.1254 53.5822 31.7789 53.4768 31.428C53.4411 31.3101 53.3956 31.2869 53.275 31.3244C52.8187 31.4681 52.8169 31.4628 52.958 31.9075C53.0384 32.1602 53.1143 32.4156 53.2018 32.6657C53.2393 32.7737 53.2223 32.8228 53.108 32.8576C52.7687 32.9594 52.4311 33.0675 52.0962 33.1818C51.9873 33.2193 51.9516 33.1809 51.9221 33.0845C51.8203 32.7523 51.7087 32.4228 51.6087 32.0897C51.5712 31.9664 51.531 31.9155 51.3845 31.9611C50.9407 32.0986 50.9389 32.0915 51.0782 32.5272C51.1595 32.78 51.2327 33.0354 51.3202 33.2863C51.3568 33.3908 51.3301 33.4327 51.2291 33.464C50.8845 33.5703 50.5415 33.6801 50.2004 33.7953C50.1049 33.8274 50.07 33.8042 50.0415 33.7096C49.9397 33.3702 49.8245 33.0354 49.7227 32.6969C49.6887 32.5844 49.6485 32.5496 49.5253 32.588C49.0618 32.7326 49.061 32.7273 49.2092 33.1889C49.2851 33.4238 49.3548 33.6596 49.4351 33.8935C49.4682 33.9909 49.4566 34.0373 49.3476 34.0703C49.0092 34.173 48.6725 34.2847 48.3376 34.399C48.2323 34.4347 48.184 34.4222 48.1501 34.3034C48.059 33.981 47.9492 33.6649 47.8518 33.3443C47.817 33.2282 47.7768 33.1827 47.6393 33.2273C47.1848 33.3765 47.183 33.3693 47.3277 33.8176C47.4018 34.0462 47.4723 34.2757 47.5491 34.5034C47.5813 34.599 47.5714 34.649 47.4616 34.682C47.1169 34.7865 46.774 34.8999 46.4329 35.0151C46.34 35.0464 46.2954 35.0241 46.2677 34.9294C46.2078 34.7231 46.1355 34.5204 46.0792 34.3132C46.0507 34.207 46.0033 34.1829 45.9051 34.2257C45.7551 34.2909 45.5238 34.2757 45.4649 34.4025C45.4149 34.5097 45.5327 34.6954 45.5801 34.8455C45.664 35.1122 45.5711 35.2899 45.3014 35.3786C45.0791 35.4518 44.8541 35.5161 44.6344 35.5974C44.4808 35.6545 44.4022 35.6384 44.3567 35.4589C44.2825 35.1651 44.1754 34.8794 44.0897 34.5883C44.0575 34.4784 44.0137 34.457 43.9012 34.4936C43.4306 34.6445 43.4297 34.6401 43.5815 35.1107C43.6494 35.3214 43.7137 35.5331 43.786 35.742C43.8146 35.826 43.7976 35.8661 43.7092 35.8929C43.3592 36.0019 43.01 36.1144 42.6635 36.2314C42.5716 36.2626 42.5287 36.2492 42.501 36.1492C42.4376 35.9242 42.3572 35.7036 42.2929 35.4795C42.2662 35.3866 42.234 35.3634 42.134 35.3911C41.6384 35.5277 41.6402 35.5232 41.7893 36.0117C41.8348 36.1599 41.9679 36.3341 41.8911 36.452C41.8259 36.552 41.6223 36.5645 41.4785 36.6109C40.7632 36.8431 40.0471 37.0744 39.3309 37.3057C39.2961 37.3173 39.263 37.3414 39.1934 37.311H39.1969Z" fill="white" fill-opacity="0.5"/>
<path id="Vector_4" d="M57.9999 30.6011C57.9678 31.4833 57.624 32.3245 56.9292 33.022C56.5801 33.372 56.1693 33.6274 55.7103 33.7873C54.8602 34.0828 53.9957 34.3365 53.1456 34.6311C52.4535 34.8705 51.7499 35.0732 51.0569 35.3098C50.5023 35.4991 49.9389 35.6715 49.3772 35.8447C48.6833 36.059 47.9895 36.276 47.3018 36.5091C46.4106 36.8118 45.5132 37.0931 44.6193 37.3878C43.7584 37.6718 42.8905 37.937 42.0323 38.2308C41.5599 38.3924 41.075 38.5148 40.5999 38.6675C39.5605 39.0015 38.5228 39.3417 37.486 39.6846C37.3628 39.7257 37.3074 39.7096 37.2744 39.5801C37.2315 39.4158 37.1789 39.2524 37.1163 39.0943C37.0663 38.9684 37.0842 38.9104 37.2244 38.8657C38.5371 38.4469 39.8471 38.021 41.158 37.5977C43.5093 36.8386 45.8606 36.0805 48.2109 35.3205C50.5684 34.5588 52.9268 33.7998 55.2825 33.0318C56.9864 32.4764 57.6695 30.5403 56.7015 29.0392C56.0782 28.073 54.8128 27.6265 53.6993 27.9855C50.4818 29.0231 47.2643 30.0635 44.0478 31.1029C41.2331 32.012 38.4192 32.9211 35.6063 33.8346C35.4625 33.881 35.3973 33.8694 35.3643 33.7051C35.3321 33.5417 35.2634 33.3845 35.2009 33.2291C35.1535 33.1113 35.1955 33.0648 35.3054 33.03C36.0046 32.8085 36.7056 32.5898 37.4003 32.3549C38.1844 32.0906 38.9782 31.8584 39.7569 31.578C40.3802 31.3539 41.0214 31.1797 41.6528 30.9779C42.6976 30.6439 43.7415 30.3064 44.7854 29.9688C45.9427 29.5947 47.1 29.2187 48.2574 28.8445C49.0584 28.5856 49.8621 28.3364 50.6595 28.0658C51.5659 27.7587 52.4803 27.4774 53.3894 27.1773C54.202 26.9094 55.0343 26.9469 55.8407 27.2773C56.3023 27.4666 56.7158 27.7345 57.0462 28.098C57.6606 28.7749 57.9865 29.5813 57.9999 30.5993V30.6011Z" fill="white"/>
<path id="Vector_5" d="M36.0913 40.7178C35.9815 40.7374 35.9672 40.6499 35.9458 40.5847C35.7422 39.9579 35.543 39.3292 35.3403 38.7014C35.1296 38.0495 34.9161 37.3985 34.7054 36.7467C34.3259 35.575 33.949 34.4025 33.5668 33.2318C33.5177 33.0827 33.5177 32.9979 33.7017 32.9541C33.9106 32.9041 34.1142 32.8219 34.3134 32.7389C34.4223 32.6933 34.4607 32.7032 34.4991 32.8228C34.917 34.1212 35.3439 35.4179 35.7645 36.7154C36.1422 37.8816 36.5146 39.0497 36.8959 40.2142C36.9486 40.3758 36.9593 40.457 36.7593 40.5222C36.5378 40.5937 36.311 40.6446 36.0922 40.7178H36.0913Z" fill="white"/>
<path id="Vector_6" d="M32.9673 44.5577C33.5781 44.563 34.0478 45.0078 34.0648 45.6659C34.0791 46.2365 33.5486 46.7884 32.9664 46.775C32.3502 46.7616 31.8654 46.3142 31.8546 45.6596C31.8457 45.0622 32.2565 44.5916 32.9673 44.5568V44.5577Z" fill="white" fill-opacity="0.5"/>
<path id="Vector_7" d="M32.636 41.7992C32.5913 41.2732 33.0762 40.6785 33.7371 40.7133C34.397 40.7482 34.8256 41.2241 34.8203 41.8081C34.8149 42.4708 34.3077 42.9021 33.7049 42.9164C33.2156 42.928 32.5824 42.394 32.636 41.7992Z" fill="white" fill-opacity="0.5"/>
<path id="Vector_8" d="M37.3079 55.9175C37.3106 56.3702 36.9552 56.7274 36.506 56.7256C36.072 56.7238 35.6925 56.3613 35.7148 55.9246C35.7425 55.3977 36.0059 55.1406 36.4971 55.1227C36.9561 55.1057 37.3052 55.4692 37.3079 55.9175Z" fill="white" fill-opacity="0.5"/>
<path id="Vector_9" d="M31.9493 54.2726C31.9493 54.653 31.6609 54.9504 31.2903 54.9539C30.9099 54.9575 30.5946 54.6512 30.5938 54.2762C30.5929 53.91 30.9161 53.5894 31.2823 53.593C31.6502 53.5966 31.9502 53.902 31.9493 54.2726Z" fill="white" fill-opacity="0.5"/>
<path id="Vector_10" d="M31.0314 39.0167C31.0287 38.6121 31.2681 38.363 31.6636 38.3648C32.0342 38.3666 32.3245 38.6112 32.3245 39.005C32.3245 39.3774 32.0539 39.6677 31.6761 39.6909C31.3699 39.7087 31.0198 39.4614 31.0305 39.0167H31.0314Z" fill="white" fill-opacity="0.5"/>
<path id="Vector_11" d="M34.423 51.7222C34.415 51.3159 34.6543 51.0569 35.0374 51.0426C35.4839 51.0256 35.7215 51.3221 35.7384 51.6856C35.7545 52.0365 35.4473 52.3339 35.091 52.3375C34.7177 52.341 34.4302 52.0749 34.423 51.7222Z" fill="white" fill-opacity="0.5"/>
<path id="Vector_12" d="M34.9883 48.027C34.9883 47.7716 35.1651 47.5948 35.425 47.5921C35.6786 47.5894 35.8938 47.7957 35.8866 48.0332C35.8795 48.2556 35.6473 48.4931 35.4339 48.4958C35.2106 48.4994 34.9892 48.2654 34.9883 48.027Z" fill="white" fill-opacity="0.5"/>
<path id="Vector_13" d="M32.4647 49.2968C32.7175 49.2968 32.8987 49.4745 32.8978 49.7192C32.8978 49.9728 32.6844 50.1844 32.4308 50.1844C32.2281 50.1844 31.9977 49.9398 31.9932 49.7219C31.9888 49.4781 32.1906 49.2959 32.4647 49.2968Z" fill="white" fill-opacity="0.5"/>
<path id="Vector_14" d="M34.0175 55.1459C33.7612 55.1468 33.5433 54.9352 33.5469 54.6887C33.5496 54.4726 33.7621 54.277 33.9961 54.2735C34.2524 54.2699 34.4622 54.4735 34.4569 54.72C34.4524 54.962 34.2631 55.145 34.0175 55.1459Z" fill="white" fill-opacity="0.5"/>
<path id="Vector_15" d="M38.8545 59.2662C38.525 59.2662 38.241 58.9787 38.2383 58.6429C38.2356 58.2991 38.525 58.0044 38.8625 58.0062C39.1965 58.008 39.4992 58.3116 39.4956 58.6402C39.4921 58.976 39.1956 59.2653 38.8554 59.2653L38.8545 59.2662Z" fill="white"/>
<path id="Vector_16" d="M30.338 60.2494C30.3326 59.902 30.6282 59.5975 30.9684 59.6011C31.2917 59.6038 31.5837 59.8931 31.5935 60.219C31.6033 60.5584 31.2997 60.87 30.9613 60.8673C30.6344 60.8647 30.3433 60.5753 30.338 60.2494Z" fill="white"/>
<path id="Vector_17" d="M34.4002 62.1658C34.4055 62.5024 34.1135 62.8007 33.7751 62.8016C33.4465 62.8016 33.1527 62.5185 33.1428 62.189C33.1321 61.8532 33.4402 61.5407 33.7813 61.5416C34.1091 61.5416 34.3939 61.83 34.4002 62.1658Z" fill="white"/>
<path id="Vector_18" d="M28.0147 59.5502C27.6665 59.5529 27.3896 59.276 27.3896 58.926C27.3896 58.584 27.6593 58.3062 27.996 58.3C28.3344 58.2937 28.6345 58.5813 28.6389 58.9179C28.6434 59.2591 28.3585 59.5475 28.0147 59.5502Z" fill="white"/>
<path id="Vector_19" d="M34.4954 65.519C34.4954 65.8601 34.2016 66.1485 33.8631 66.1432C33.5309 66.1378 33.2496 65.8547 33.2452 65.5207C33.2407 65.185 33.5363 64.8831 33.8703 64.884C34.2078 64.884 34.4963 65.1778 34.4963 65.519H34.4954Z" fill="white"/>
<path id="Vector_20" d="M39.3902 63.2579C39.3804 63.599 39.083 63.8776 38.7428 63.866C38.4052 63.8544 38.1257 63.5526 38.1391 63.2132C38.1516 62.8819 38.4454 62.606 38.7776 62.6149C39.1223 62.6239 39.4009 62.9159 39.3902 63.2579Z" fill="white"/>
<path id="Vector_21" d="M29.1436 62.9668C29.4883 62.965 29.7803 63.2508 29.7785 63.5892C29.7768 63.9268 29.4839 64.2179 29.1454 64.2179C28.8105 64.2179 28.5319 63.9393 28.5284 63.6017C28.5248 63.249 28.7963 62.9695 29.1436 62.9677V62.9668Z" fill="white"/>
<path id="Vector_22" d="M34.0851 59.9449C33.8538 59.9404 33.6538 59.7314 33.6583 59.4993C33.6627 59.2653 33.8717 59.0662 34.103 59.076C34.3271 59.0858 34.5236 59.2876 34.5236 59.5091C34.5236 59.7359 34.3084 59.9493 34.0842 59.9449H34.0851Z" fill="white"/>
<path id="Vector_23" d="M37.4866 60.9915C37.492 61.1442 37.3553 61.2817 37.1982 61.2844C37.0401 61.2862 36.9044 61.1531 36.9053 60.9959C36.9053 60.854 37.0383 60.7182 37.1848 60.7102C37.3339 60.7022 37.4822 60.8397 37.4875 60.9915H37.4866Z" fill="white"/>
<path id="Vector_24" d="M36.2535 64.2331C36.4044 64.2384 36.5393 64.3822 36.5348 64.5313C36.5295 64.684 36.3884 64.8189 36.2383 64.8126C36.0874 64.8064 35.9517 64.6635 35.9562 64.5144C35.9606 64.3634 36.1044 64.2268 36.2535 64.2322V64.2331Z" fill="white"/>
<path id="Vector_25" d="M28.3942 61.7139C28.3915 61.8657 28.2504 62.0068 28.104 62.0041C27.9521 62.0014 27.8164 61.863 27.8164 61.7112C27.8164 61.5612 27.9566 61.421 28.1066 61.421C28.2558 61.421 28.396 61.5639 28.3933 61.7139H28.3942Z" fill="white"/>
<path id="Vector_26" d="M31.5925 64.9582C31.5898 65.1127 31.4532 65.2457 31.2987 65.243C31.1451 65.2404 31.0103 65.101 31.0148 64.9474C31.0192 64.7974 31.1657 64.6662 31.3193 64.6733C31.4666 64.6804 31.5952 64.8135 31.5925 64.9582Z" fill="white"/>
<path id="Vector_27" d="M40.574 61.0843C40.574 61.2469 40.4489 61.371 40.2873 61.3692C40.1319 61.3674 40.0033 61.2326 40.0069 61.0745C40.0096 60.929 40.1391 60.803 40.2882 60.8004C40.4498 60.7977 40.574 60.9218 40.574 61.0852V61.0843Z" fill="white"/>
</g>
</g>
</g>
</svg>
