<svg width="30" height="30" viewBox="0 0 30 30" fill="none" xmlns="http://www.w3.org/2000/svg">
<path d="M9.34961 22.9376L13.2246 25.9376C13.7246 26.4376 14.8496 26.6876 15.5996 26.6876H20.3496C21.8496 26.6876 23.4746 25.5626 23.8496 24.0626L26.8496 14.9376C27.4746 13.1876 26.3496 11.6876 24.4746 11.6876H19.4746C18.7246 11.6876 18.0996 11.0626 18.2246 10.1876L18.8496 6.18758C19.0996 5.06258 18.3496 3.81258 17.2246 3.43758C16.2246 3.06258 14.9746 3.56258 14.4746 4.31258L9.34961 11.9376" stroke="white" stroke-width="1.5" stroke-miterlimit="10"/>
<path d="M2.97461 22.9375V10.6875C2.97461 8.9375 3.72461 8.3125 5.47461 8.3125H6.72461C8.47461 8.3125 9.22461 8.9375 9.22461 10.6875V22.9375C9.22461 24.6875 8.47461 25.3125 6.72461 25.3125H5.47461C3.72461 25.3125 2.97461 24.6875 2.97461 22.9375Z" stroke="white" stroke-width="1.5" stroke-linecap="round" stroke-linejoin="round"/>
</svg>
