<svg width="72" height="81" viewBox="0 0 72 81" fill="none" xmlns="http://www.w3.org/2000/svg">
<g id="Group 1000005367">
<g id="Group 1">
<circle id="Ellipse 1" cx="36" cy="36" r="35.5" stroke="white" stroke-opacity="0.2"/>
</g>
<g id="Group 1000005366">
<circle id="Ellipse 2" cx="35.5" cy="48.5" r="32.5" fill="#5E4796"/>
<g id="NrAYmK.tif">
<g id="Group">
<path id="Vector" d="M49.4752 63H23.8543C20.7239 61.7375 20.0657 60.7344 20.0657 57.2286C20.0657 54.85 20.0189 52.4704 20.0789 50.0939C20.144 47.5058 20.0138 44.9655 19.1928 42.475C18.6943 40.9632 19.1826 39.5979 20.4258 38.6477C21.1552 38.0902 22.0383 37.6446 22.9224 37.3943C27.1535 36.1949 31.4061 35.0738 35.6545 33.9364C39.2132 32.9841 42.7668 32.0065 46.3438 31.1244C48.0896 30.6941 49.9198 31.4011 50.6228 32.918C51.3298 34.444 51.7011 36.1257 52.2271 37.7606C51.9239 37.8593 51.8192 37.9 51.7113 37.9274C50.1914 38.3242 48.6776 38.7474 47.1465 39.0943C46.7802 39.1778 46.3 39.1096 45.9684 38.9316C44.5817 38.1889 43.1493 37.491 41.8898 36.5642C40.1725 35.3017 38.4624 34.9975 36.506 35.8754C35.8376 36.1756 35.0889 36.2966 34.2099 36.5479C36.6454 37.96 38.8937 39.2642 41.3221 40.6722C39.6395 41.1168 38.2131 41.5207 36.7695 41.8544C36.4277 41.9338 35.9729 41.8788 35.6677 41.7089C33.6432 40.5827 31.6472 39.4046 29.6348 38.256C29.3968 38.1207 29.0865 37.9264 28.8637 37.9814C27.2024 38.3893 25.5553 38.8522 23.719 39.3477C26.1626 40.7628 28.415 42.067 30.8211 43.4608C29.2442 43.8789 27.882 44.2055 26.5441 44.6124C25.9409 44.7956 25.4658 44.7376 24.9337 44.4069C23.8136 43.7111 22.6538 43.0793 21.3333 42.3183C21.5459 43.1495 21.7463 43.7457 21.843 44.3591C21.962 45.113 22.2998 45.351 23.0923 45.348C32.9188 45.3164 42.7464 45.3276 52.573 45.3256C52.8579 45.3256 53.1437 45.2991 53.4286 45.2849V59.3864C52.9525 60.8015 52.1915 61.9745 50.7265 62.5412C50.3125 62.7009 49.8913 62.8464 49.4742 62.998L49.4752 63ZM22.1441 47.5282C22.1441 47.8751 22.1441 48.1284 22.1441 48.3807C22.1441 51.5314 22.14 54.6811 22.1451 57.8319C22.1492 60.011 22.9692 60.8422 25.1575 60.8442C32.8893 60.8514 40.6212 60.8524 48.353 60.8442C50.5302 60.8422 51.341 60.0059 51.3451 57.8075C51.3512 54.6567 51.3471 51.507 51.3471 48.3563C51.3471 48.0857 51.3471 47.8161 51.3471 47.5292H22.1441V47.5282ZM44.5838 33.8174C46.0854 34.6923 47.4883 35.5102 48.8933 36.3251C49.11 36.4503 49.3378 36.5571 49.582 36.6832C49.1425 33.1632 47.9542 32.4531 44.5838 33.8174Z" fill="white"/>
<path id="Vector_2" d="M34.0479 58.3375V49.8264C36.5271 51.2557 38.9169 52.6332 41.4246 54.0799C38.922 55.5245 36.5587 56.8888 34.0479 58.3375Z" fill="white" fill-opacity="0.5"/>
</g>
</g>
</g>
</g>
</svg>
