<svg width="30" height="30" viewBox="0 0 30 30" fill="none" xmlns="http://www.w3.org/2000/svg">
<path d="M10.8375 17.5H5C3.625 17.5 2.5 18.625 2.5 20V27.5H10.8375V17.5Z" stroke="white" stroke-width="1.5" stroke-miterlimit="10" stroke-linecap="round" stroke-linejoin="round"/>
<path d="M16.6627 12.5H13.3252C11.9502 12.5 10.8252 13.625 10.8252 15V27.5H19.1627V15C19.1627 13.625 18.0502 12.5 16.6627 12.5Z" stroke="white" stroke-width="1.5" stroke-miterlimit="10" stroke-linecap="round" stroke-linejoin="round"/>
<path d="M24.9996 21.25H19.1621V27.5H27.4996V23.75C27.4996 22.375 26.3746 21.25 24.9996 21.25Z" stroke="white" stroke-width="1.5" stroke-miterlimit="10" stroke-linecap="round" stroke-linejoin="round"/>
<path d="M15.6498 2.58752L16.3123 3.91252C16.3998 4.10002 16.6373 4.27502 16.8373 4.30002L18.0373 4.50002C18.7998 4.62502 18.9873 5.1875 18.4373 5.725L17.4998 6.6625C17.3373 6.825 17.2498 7.12501 17.2998 7.33751L17.5623 8.48752C17.7748 9.40002 17.2873 9.75003 16.4873 9.27503L15.3623 8.61253C15.1623 8.48753 14.8248 8.48753 14.6248 8.61253L13.4998 9.27503C12.6998 9.75003 12.2123 9.40002 12.4248 8.48752L12.6873 7.33751C12.7373 7.12501 12.6498 6.8125 12.4873 6.6625L11.5623 5.73751C11.0123 5.18751 11.1873 4.6375 11.9623 4.5125L13.1623 4.31253C13.3623 4.27503 13.5998 4.10003 13.6873 3.92503L14.3498 2.6C14.7123 1.875 15.2873 1.87502 15.6498 2.58752Z" stroke="white" stroke-width="1.5" stroke-linecap="round" stroke-linejoin="round"/>
</svg>
