<svg width="30" height="37" viewBox="0 0 30 37" fill="none" xmlns="http://www.w3.org/2000/svg">
<g id="Group">
<path id="Vector" d="M16.1876 9.24999C16.1876 8.48368 15.5664 7.86249 14.8001 7.86249C14.0338 7.86249 13.4126 8.48368 13.4126 9.24999V14.8C13.4126 15.5663 14.0338 16.1875 14.8001 16.1875C15.5664 16.1875 16.1876 15.5663 16.1876 14.8V9.24999Z" fill="white"/>
<path id="Vector_2" fill-rule="evenodd" clip-rule="evenodd" d="M0 14.8C0 6.62618 6.62618 0 14.8 0C22.9738 0 29.6 6.62618 29.6 14.8V22.2C29.6 30.3739 22.9738 37 14.8 37C6.62618 37 0 30.3739 0 22.2V14.8ZM26.825 14.8V22.2C26.825 28.8413 21.4413 34.225 14.8 34.225C8.15879 34.225 2.775 28.8413 2.775 22.2V14.8C2.775 8.15879 8.15879 2.775 14.8 2.775C21.4413 2.775 26.825 8.15879 26.825 14.8Z" fill="white"/>
</g>
</svg>
