<svg width="24" height="24" viewBox="0 0 24 24" fill="none" xmlns="http://www.w3.org/2000/svg">
<g id="Frame" clip-path="url(#clip0_41_1752)">
<path id="Vector" d="M7.25301 18.4939L7.97701 18.9169C9.19795 19.629 10.5866 20.0028 12 19.9999C13.5823 19.9999 15.129 19.5307 16.4446 18.6516C17.7602 17.7726 18.7855 16.5232 19.3911 15.0613C19.9966 13.5995 20.155 11.991 19.8463 10.4392C19.5376 8.88731 18.7757 7.46184 17.6569 6.34302C16.538 5.2242 15.1126 4.46228 13.5607 4.1536C12.0089 3.84491 10.4004 4.00334 8.93855 4.60884C7.47674 5.21434 6.22731 6.23972 5.34826 7.55532C4.46921 8.87091 4.00001 10.4176 4.00001 11.9999C4.00001 13.4359 4.37701 14.8129 5.08401 16.0239L5.50601 16.7479L4.85301 19.1489L7.25301 18.4939ZM2.00401 21.9999L3.35601 17.0319C2.46515 15.5047 1.99711 13.7679 2.00001 11.9999C2.00001 6.47688 6.47701 1.99988 12 1.99988C17.523 1.99988 22 6.47688 22 11.9999C22 17.5229 17.523 21.9999 12 21.9999C10.2328 22.0027 8.49667 21.535 6.97001 20.6449L2.00401 21.9999ZM8.39101 7.30788C8.52501 7.29788 8.66001 7.29788 8.79401 7.30388C8.84801 7.30788 8.90201 7.31388 8.95601 7.31988C9.11501 7.33788 9.29001 7.43488 9.34901 7.56888C9.64701 8.24488 9.93701 8.92588 10.217 9.60888C10.279 9.76088 10.242 9.95588 10.124 10.1459C10.0429 10.2744 9.95507 10.3985 9.86101 10.5179C9.74801 10.6629 9.50501 10.9289 9.50501 10.9289C9.50501 10.9289 9.40601 11.0469 9.44401 11.1939C9.45801 11.2499 9.50401 11.3309 9.54601 11.3989L9.60501 11.4939C9.86101 11.9209 10.205 12.3539 10.625 12.7619C10.745 12.8779 10.862 12.9969 10.988 13.1079C11.456 13.5209 11.986 13.8579 12.558 14.1079L12.563 14.1099C12.648 14.1469 12.691 14.1669 12.815 14.2199C12.877 14.2459 12.941 14.2689 13.006 14.2859C13.0732 14.303 13.1439 14.2998 13.2093 14.2766C13.2746 14.2535 13.3316 14.2115 13.373 14.1559C14.097 13.2789 14.163 13.2219 14.169 13.2219V13.2239C14.2193 13.177 14.2791 13.1414 14.3443 13.1195C14.4095 13.0975 14.4786 13.0899 14.547 13.0969C14.607 13.1009 14.668 13.1119 14.724 13.1369C15.255 13.3799 16.124 13.7589 16.124 13.7589L16.706 14.0199C16.804 14.0669 16.893 14.1779 16.896 14.2849C16.9 14.3519 16.906 14.4599 16.883 14.6579C16.851 14.9169 16.773 15.2279 16.695 15.3909C16.6416 15.5021 16.5707 15.6041 16.485 15.6929C16.3841 15.7988 16.2736 15.8952 16.155 15.9809C16.114 16.0117 16.0723 16.0417 16.03 16.0709C15.9056 16.1498 15.7778 16.2232 15.647 16.2909C15.3895 16.4276 15.1052 16.5062 14.814 16.5209C14.629 16.5309 14.444 16.5449 14.258 16.5349C14.25 16.5349 13.69 16.4479 13.69 16.4479C12.2683 16.0739 10.9534 15.3733 9.85001 14.4019C9.62401 14.2029 9.41501 13.9889 9.20101 13.7759C8.31101 12.8909 7.63901 11.9359 7.23101 11.0339C7.02218 10.5912 6.90938 10.1093 6.90001 9.61988C6.89589 9.01273 7.09436 8.42154 7.46401 7.93988C7.53701 7.84588 7.60601 7.74788 7.72501 7.63488C7.85201 7.51488 7.93201 7.45088 8.01901 7.40688C8.13469 7.34891 8.26088 7.3149 8.39001 7.30688L8.39101 7.30788Z" fill="white"/>
</g>
<defs>
<clipPath id="clip0_41_1752">
<rect width="24" height="24" fill="white"/>
</clipPath>
</defs>
</svg>
